HIERARCHY
ROOT SpineBase
{
  OFFSET 0.000000 0.000000 0.000000
  CHANNELS 6 Xposition Yposition Zposition Zrotation Xrotation Yrotation
  JOINT SpineMid
  {
    OFFSET 0.000000 26.975710 0.000000
    CHANNELS 3 Zrotation Xrotation Yrotation
    JOINT SpineShoulder
    {
      OFFSET -0.033231 20.086327 -0.608523
      CHANNELS 3 Zrotation Xrotation Yrotation
      JOINT Neck
      {
        OFFSET -0.026332 6.663547 -0.477298
        CHANNELS 3 Zrotation Xrotation Yrotation
        JOINT Head
        {
          OFFSET -3.949843 12.736394 -1.657292
          CHANNELS 3 Zrotation Xrotation Yrotation
          End Site
          {
            OFFSET 0 0 0
          }
        }
      }
      JOINT ShoulderLeft
      {
        OFFSET -12.935410 -3.527589 5.708528
        CHANNELS 3 Zrotation Xrotation Yrotation
        JOINT ElbowLeft
        {
          OFFSET 0.000539 -18.307826 -2.328187
          CHANNELS 3 Zrotation Xrotation Yrotation
          JOINT WristLeft
          {
            OFFSET 2.143037 -3.308772 -19.989890
            CHANNELS 3 Zrotation Xrotation Yrotation
            JOINT HandLeft
            {
              OFFSET -0.000823 -2.523847 -0.995799
              CHANNELS 3 Zrotation Xrotation Yrotation
              JOINT HandTipLeft
              {
                OFFSET 0.743252 -2.059610 -2.045425
                CHANNELS 3 Zrotation Xrotation Yrotation
                End Site
                {
                  OFFSET 0 0 0
                }
              }
              JOINT ThumbLeft
              {
                OFFSET -0.493609 3.345609 -1.795420
                CHANNELS 3 Zrotation Xrotation Yrotation
                End Site
                {
                  OFFSET 0 0 0
                }
              }
            }
          }
        }
      }
      JOINT ShoulderRight
      {
        OFFSET 10.419338 -2.580358 -7.786524
        CHANNELS 3 Zrotation Xrotation Yrotation
        JOINT ElbowRight
        {
          OFFSET 8.621847 -18.756950 -1.231471
          CHANNELS 3 Zrotation Xrotation Yrotation
          JOINT WristRight
          {
            OFFSET -22.992075 -4.779546 -9.535615
            CHANNELS 3 Zrotation Xrotation Yrotation
            JOINT HandRight
            {
              OFFSET -4.919958 -1.376966 0.318891
              CHANNELS 3 Zrotation Xrotation Yrotation
              JOINT HandTipRight
              {
                OFFSET -4.161309 -1.958667 -0.081387
                CHANNELS 3 Zrotation Xrotation Yrotation
                End Site
                {
                  OFFSET 0 0 0
                }
              }
              JOINT ThumbRight
              {
                OFFSET -0.720886 -3.484968 -0.436907
                CHANNELS 3 Zrotation Xrotation Yrotation
                End Site
                {
                  OFFSET 0 0 0
                }
              }
            }
          }
        }
      }
    }
  }
  JOINT HipLeft
  {
    OFFSET -5.524011 0.070312 -0.617953
    CHANNELS 3 Zrotation Xrotation Yrotation
    JOINT KneeLeft
    {
      OFFSET 5.172364 -32.968591 3.976458
      CHANNELS 3 Zrotation Xrotation Yrotation
      JOINT AnkleLeft
      {
        OFFSET 6.404717 -31.285592 7.408313
        CHANNELS 3 Zrotation Xrotation Yrotation
        JOINT FootLeft
        {
          OFFSET -3.774645 -5.610160 -1.921302
          CHANNELS 3 Zrotation Xrotation Yrotation
          End Site
          {
            OFFSET 0 0 0
          }
        }
      }
    }
  }
  JOINT HipRight
  {
    OFFSET 5.142862 1.281989 -5.499564
    CHANNELS 3 Zrotation Xrotation Yrotation
    JOINT KneeRight
    {
      OFFSET 5.768777 -32.150657 0.301301
      CHANNELS 3 Zrotation Xrotation Yrotation
      JOINT AnkleRight
      {
        OFFSET 4.909060 -30.782697 4.656460
        CHANNELS 3 Zrotation Xrotation Yrotation
        JOINT FootRight
        {
          OFFSET -4.187655 -6.669777 0.889652
          CHANNELS 3 Zrotation Xrotation Yrotation
          End Site
          {
            OFFSET 0 0 0
          }
        }
      }
    }
  }
}
MOTION
Frames: 15
Frame Time: 0.033333
24.233771 71.748703 369.768889 -0.087097 -0.888767 32.538899 0.071659 -0.212783 -32.539949 -0.133686 -0.161828 -0.007810 10.714009 -2.535537 0.357572 0.000000 0.000000 0.000000 0.421938 -20.424584 0.023586 7.884621 57.040621 -7.612606 116.522996 -2.763871 -7.344803 -107.966883 14.217827 6.908372 0.000000 0.000000 0.000000 0.000000 0.000000 0.000000 -48.232079 28.897302 35.858811 -46.209954 -0.876411 -4.227908 19.263312 -11.207841 -43.486249 -8.355243 -11.939449 12.798331 0.000000 0.000000 0.000000 0.000000 0.000000 0.000000 0.516551 2.960779 -32.395622 0.399466 -0.371820 -0.031673 -2.447242 35.701565 -20.816576 0.000000 0.000000 0.000000 2.578933 0.945136 -32.325421 -2.809187 -2.066070 -0.610231 5.272120 7.154746 -3.534500 0.000000 0.000000 0.000000
24.217590 71.753156 369.742856 -0.246854 -0.833258 32.499660 0.026138 -0.149459 -32.508346 -0.205127 -0.215873 -0.022639 12.594113 -3.155839 0.481640 0.000000 0.000000 0.000000 0.586736 -19.811683 0.035739 6.671705 53.923998 -6.065394 112.174142 0.159463 -15.592758 -98.878768 7.319655 0.723661 0.000000 0.000000 0.000000 0.000000 0.000000 0.000000 -48.406501 29.142660 36.453776 -47.194944 -1.257915 -3.969262 22.954880 -10.180021 -46.255596 -8.952001 -12.379833 13.361605 0.000000 0.000000 0.000000 0.000000 0.000000 0.000000 0.812208 2.796396 -32.329341 0.168180 -0.479705 -0.088863 -1.886455 33.548204 -19.925876 0.000000 0.000000 0.000000 2.589878 0.743434 -32.300244 -2.754353 -1.920348 -0.577310 4.823242 6.792079 -3.338355 0.000000 0.000000 0.000000
24.204548 71.717984 369.747285 -0.332464 -0.859273 32.577813 0.006602 -0.078006 -32.590991 -0.247463 -0.245801 -0.031716 13.665810 -3.266314 0.595136 0.000000 0.000000 0.000000 0.832682 -19.443335 0.048857 5.366524 50.799339 -4.629820 97.009204 19.064732 -36.336189 -76.039080 -16.433987 -9.707028 0.000000 0.000000 0.000000 0.000000 0.000000 0.000000 -48.611277 29.633098 37.239920 -48.798811 -1.789326 -3.599726 27.447987 -9.872261 -49.220942 -9.514128 -15.675185 15.616611 0.000000 0.000000 0.000000 0.000000 0.000000 0.000000 1.061681 2.745477 -32.385019 -0.041141 -0.578240 -0.143190 -1.548605 32.085344 -19.248635 0.000000 0.000000 0.000000 2.700231 0.692102 -32.379359 -2.845827 -2.009961 -0.603445 6.006652 1.483898 0.477222 0.000000 0.000000 0.000000
24.179366 71.719781 369.961248 -0.470024 -1.033805 33.811837 0.043387 0.011246 -33.831200 -0.258524 -0.220429 -0.038937 14.408948 -3.294656 0.659421 0.000000 0.000000 0.000000 1.152699 -18.573589 0.060824 3.749308 45.724374 -3.014918 85.203027 33.985109 -45.699167 -53.709385 -18.499166 -6.240639 0.000000 0.000000 0.000000 0.000000 0.000000 0.000000 -48.834250 29.754993 37.636058 -49.854265 -1.735343 -3.205559 28.107372 -9.122212 -50.559923 -12.474376 -21.276468 17.617642 0.000000 0.000000 0.000000 0.000000 0.000000 0.000000 1.544412 3.138913 -33.569881 -0.008064 -1.025680 -0.212243 -2.329272 31.215128 -18.251429 0.000000 0.000000 0.000000 3.035104 0.689025 -33.608909 -3.000279 -2.214942 -0.652728 4.527214 1.219131 0.598529 0.000000 0.000000 0.000000
24.171766 71.764638 370.378321 -0.579628 -1.340173 36.723982 0.061220 0.123407 -36.750146 -0.244786 -0.136032 -0.044208 14.974455 -2.875289 0.751705 0.000000 0.000000 0.000000 1.628958 -17.420407 0.069256 2.985208 43.356684 -2.552203 82.042913 34.901349 -44.931662 -47.850266 -12.833842 -3.971467 0.000000 0.000000 0.000000 0.000000 0.000000 0.000000 -49.040312 29.865497 37.992455 -52.376356 -2.077999 -1.680539 33.498914 -10.053879 -53.480202 -15.027366 -24.164924 18.666180 0.000000 0.000000 0.000000 0.000000 0.000000 0.000000 2.325113 4.065770 -36.400817 0.240821 -1.972277 -0.328784 -2.837666 35.118716 -20.062198 0.000000 0.000000 0.000000 3.433715 0.660496 -36.525935 -3.045720 -2.530326 -0.697419 -0.131952 11.252572 -5.925818 0.000000 0.000000 0.000000
24.169319 71.861374 370.593387 -0.738254 -1.448166 37.693862 0.015286 0.080561 -37.728018 -0.200118 -0.099092 -0.048320 15.616886 -3.029730 0.745868 0.000000 0.000000 0.000000 1.804885 -17.489951 0.076772 2.557787 42.142351 -2.095855 73.761835 42.139903 -44.870876 -36.921769 -18.500967 -0.971785 0.000000 0.000000 0.000000 0.000000 0.000000 0.000000 -49.642213 30.158416 38.798756 -53.403764 -2.243269 -1.480365 36.725431 -9.812928 -55.817831 -18.487069 -27.710715 19.102992 0.000000 0.000000 0.000000 0.000000 0.000000 0.000000 2.618368 4.298462 -37.358999 0.411008 -2.326312 -0.362289 -5.388347 31.367068 -16.349057 0.000000 0.000000 0.000000 3.738568 0.575904 -37.488156 -3.171877 -2.736752 -0.743352 -2.926195 21.160464 -11.763504 0.000000 0.000000 0.000000
24.140147 71.952727 370.828538 -0.977775 -1.633112 37.980432 0.010635 0.117032 -38.026700 -0.193421 -0.096125 -0.059171 16.666067 -3.083588 0.791578 0.000000 0.000000 0.000000 1.813960 -18.212781 0.091235 2.387903 41.049555 -1.595243 54.878942 52.642619 -37.951965 -18.587659 -27.343856 4.845963 0.000000 0.000000 0.000000 0.000000 0.000000 0.000000 -50.468804 30.418279 39.841531 -53.681305 -3.213623 -1.445678 36.931033 -7.366994 -58.637982 -19.805985 -29.178819 18.595035 0.000000 0.000000 0.000000 0.000000 0.000000 0.000000 2.929569 4.378326 -37.650619 0.492340 -2.483744 -0.377944 -7.423023 29.638849 -14.155817 0.000000 0.000000 0.000000 4.146634 0.550896 -37.770013 -3.060025 -2.706763 -0.706186 -4.086890 27.644802 -15.727213 0.000000 0.000000 0.000000
24.136967 72.120644 370.980953 -1.182956 -1.671796 38.186876 -0.071157 0.133007 -38.244081 -0.177803 -0.088480 -0.069952 17.712405 -3.255220 0.853690 0.000000 0.000000 0.000000 1.837220 -18.553047 0.102744 2.790791 41.993647 -1.758065 49.828590 54.439859 -35.037980 -14.842171 -31.750398 5.874638 0.000000 0.000000 0.000000 0.000000 0.000000 0.000000 -51.880589 31.098675 41.810196 -52.512374 -3.201042 -3.585601 29.739019 -5.042025 -56.285666 -18.243360 -34.543391 20.399903 0.000000 0.000000 0.000000 0.000000 0.000000 0.000000 3.056832 4.230410 -37.870884 0.542797 -2.357005 -0.345187 -9.337535 30.001472 -13.263097 0.000000 0.000000 0.000000 4.300771 0.395096 -37.983363 -3.111890 -2.735335 -0.717880 -4.391864 31.889885 -18.233851 0.000000 0.000000 0.000000
24.111659 72.210896 371.138081 -1.461147 -1.661633 38.132113 -0.089863 0.148402 -38.201859 -0.176804 -0.024743 -0.081350 18.961974 -3.874903 0.937749 0.000000 0.000000 0.000000 1.808957 -19.067827 0.114613 3.642576 44.158735 -2.370026 63.309691 51.427706 -42.893995 -26.922223 -37.027016 1.095650 0.000000 0.000000 0.000000 0.000000 0.000000 0.000000 -53.654599 31.832425 44.226110 -50.387047 -3.270389 -6.743502 24.128630 -4.609476 -53.268930 -15.030306 -34.674798 21.270411 0.000000 0.000000 0.000000 0.000000 0.000000 0.000000 3.230467 3.993257 -37.821975 0.635839 -2.307839 -0.310210 -11.046854 32.415904 -13.500614 0.000000 0.000000 0.000000 4.459907 0.161770 -37.935594 -3.159205 -2.634588 -0.707056 -3.975558 32.414337 -18.675249 0.000000 0.000000 0.000000
24.066381 72.209461 371.243730 -1.775513 -1.637294 37.627005 -0.095568 0.130411 -37.710456 -0.204894 0.014773 -0.094835 20.072331 -4.063865 1.059128 0.000000 0.000000 0.000000 1.735057 -19.643919 0.122334 5.510846 48.985590 -4.066349 79.093568 39.571895 -44.633952 -51.158318 -36.877373 -8.162327 0.000000 0.000000 0.000000 0.000000 0.000000 0.000000 -55.296046 32.734504 46.849766 -47.465173 -3.738823 -10.645527 18.474316 -5.614440 -49.191412 -11.532459 -24.966135 17.889647 0.000000 0.000000 0.000000 0.000000 0.000000 0.000000 3.396817 3.644601 -37.325368 0.643214 -2.053025 -0.252408 -10.541022 32.567129 -14.022089 0.000000 0.000000 0.000000 4.751473 -0.003464 -37.416634 -3.198867 -2.648871 -0.711732 -4.230319 29.265341 -16.643929 0.000000 0.000000 0.000000
24.002025 72.072280 371.243345 -2.070977 -1.524406 36.439143 -0.107679 0.088557 -36.534074 -0.222434 0.027092 -0.107016 20.657692 -3.957417 1.171020 0.000000 0.000000 0.000000 1.627648 -20.241001 0.123791 6.740485 51.449473 -4.944311 85.896575 33.778391 -43.577426 -64.231021 -38.608229 -13.065564 0.000000 0.000000 0.000000 0.000000 0.000000 0.000000 -56.989422 33.757925 49.722250 -44.861033 -4.110828 -14.847495 12.262902 -6.944716 -44.828692 -8.211541 -20.016968 15.774088 0.000000 0.000000 0.000000 0.000000 0.000000 0.000000 3.475222 3.121140 -36.147377 0.480138 -1.709726 -0.216773 -9.933352 28.128616 -12.258696 0.000000 0.000000 0.000000 5.058135 -0.116813 -36.196415 -3.441111 -2.768618 -0.770604 -1.993534 24.790462 -14.209493 0.000000 0.000000 0.000000
23.918961 71.811792 371.141689 -2.308170 -1.382983 34.762201 -0.119399 0.020895 -34.865347 -0.231648 -0.031574 -0.117664 20.802889 -3.442175 1.256869 0.000000 0.000000 0.000000 1.446059 -20.814657 0.115614 7.944772 53.512505 -5.835899 91.330854 30.051732 -42.842328 -72.570875 -36.392655 -15.393982 0.000000 0.000000 0.000000 0.000000 0.000000 0.000000 -58.546079 34.684909 52.377853 -42.035734 -4.390734 -19.096424 3.494199 -9.479707 -39.031614 -4.545800 -11.897968 11.028674 0.000000 0.000000 0.000000 0.000000 0.000000 0.000000 3.560899 2.416640 -34.480544 0.092663 -1.176776 -0.185227 -8.694697 25.826900 -11.868015 0.000000 0.000000 0.000000 5.375636 -0.132737 -34.476452 -3.614098 -2.950052 -0.824357 1.991985 18.011389 -10.302082 0.000000 0.000000 0.000000
23.857029 71.477044 371.006056 -2.423114 -1.305588 33.162631 -0.099022 -0.024293 -33.268827 -0.232288 -0.136499 -0.123698 20.970059 -2.803883 1.340970 0.000000 0.000000 0.000000 1.182510 -21.342330 0.097461 9.659970 56.281009 -7.451163 99.742264 22.714772 -38.749135 -84.905214 -30.490150 -16.525631 0.000000 0.000000 0.000000 0.000000 0.000000 0.000000 -60.215223 35.537320 54.981345 -40.435719 -4.917464 -22.355738 -2.710617 -13.941490 -33.993159 -0.139103 -8.450808 7.913858 0.000000 0.000000 0.000000 0.000000 0.000000 0.000000 3.608394 1.844264 -32.898573 -0.303092 -0.652356 -0.157036 -7.046474 26.195838 -13.022794 0.000000 0.000000 0.000000 5.752210 0.001005 -32.826605 -3.904933 -3.310967 -0.921297 3.547507 3.398643 -0.558551 0.000000 0.000000 0.000000
23.787073 71.154594 370.980831 -2.577744 -1.279518 32.491859 -0.075220 -0.081692 -32.603903 -0.234107 -0.208370 -0.130311 20.419133 -1.803196 1.370251 0.000000 0.000000 0.000000 0.877083 -21.499168 0.080711 9.436690 54.502666 -6.960414 104.179557 15.838406 -35.561463 -88.737996 -21.245613 -12.722837 0.000000 0.000000 0.000000 0.000000 0.000000 0.000000 -61.602041 36.355371 57.378207 -40.028757 -5.476763 -24.678557 -4.245740 -16.701103 -31.730681 2.701545 -2.005940 3.281155 0.000000 0.000000 0.000000 0.000000 0.000000 0.000000 3.868753 1.625353 -32.206049 -0.509618 -0.656881 -0.186821 -5.736318 28.960910 -15.214856 0.000000 0.000000 0.000000 6.168403 0.092628 -32.104902 -4.072164 -3.625131 -0.991211 4.380529 0.516936 1.465369 0.000000 0.000000 0.000000
23.728110 70.852775 370.994153 -2.685364 -1.334689 32.515839 -0.062877 -0.119594 -32.633894 -0.242207 -0.269279 -0.135910 19.065861 -0.265622 1.380176 0.000000 0.000000 0.000000 0.621264 -21.566354 0.067303 10.829299 56.041850 -8.305885 114.626760 1.935987 -19.229234 -103.242160 -7.494181 -3.026078 0.000000 0.000000 0.000000 0.000000 0.000000 0.000000 -63.017576 37.189429 59.852554 -40.972823 -5.778676 -26.167535 -2.499755 -17.854223 -31.631923 6.669661 0.308132 0.801752 0.000000 0.000000 0.000000 0.000000 0.000000 0.000000 4.200261 1.726998 -32.188234 -0.533159 -0.964093 -0.233993 -4.191962 33.667457 -18.693181 0.000000 0.000000 0.000000 6.595097 0.252253 -32.077692 -4.179212 -4.032792 -1.070671 2.632801 2.562318 0.008747 0.000000 0.000000 0.000000
